%TF.GenerationSoftware,KiCad,Pcbnew,9.0.6*%
%TF.CreationDate,2026-03-09T03:43:32+05:30*%
%TF.ProjectId,Avionics_Board_Rev_2,4176696f-6e69-4637-935f-426f6172645f,rev?*%
%TF.SameCoordinates,Original*%
%TF.FileFunction,Paste,Top*%
%TF.FilePolarity,Positive*%
%FSLAX46Y46*%
G04 Gerber Fmt 4.6, Leading zero omitted, Abs format (unit mm)*
G04 Created by KiCad (PCBNEW 9.0.6) date 2026-03-09 03:43:32*
%MOMM*%
%LPD*%
G01*
G04 APERTURE LIST*
G04 Aperture macros list*
%AMRoundRect*
0 Rectangle with rounded corners*
0 $1 Rounding radius*
0 $2 $3 $4 $5 $6 $7 $8 $9 X,Y pos of 4 corners*
0 Add a 4 corners polygon primitive as box body*
4,1,4,$2,$3,$4,$5,$6,$7,$8,$9,$2,$3,0*
0 Add four circle primitives for the rounded corners*
1,1,$1+$1,$2,$3*
1,1,$1+$1,$4,$5*
1,1,$1+$1,$6,$7*
1,1,$1+$1,$8,$9*
0 Add four rect primitives between the rounded corners*
20,1,$1+$1,$2,$3,$4,$5,0*
20,1,$1+$1,$4,$5,$6,$7,0*
20,1,$1+$1,$6,$7,$8,$9,0*
20,1,$1+$1,$8,$9,$2,$3,0*%
G04 Aperture macros list end*
%ADD10RoundRect,0.250000X0.400000X0.625000X-0.400000X0.625000X-0.400000X-0.625000X0.400000X-0.625000X0*%
%ADD11RoundRect,0.250000X-0.625000X0.400000X-0.625000X-0.400000X0.625000X-0.400000X0.625000X0.400000X0*%
%ADD12RoundRect,0.150000X0.150000X-0.512500X0.150000X0.512500X-0.150000X0.512500X-0.150000X-0.512500X0*%
%ADD13RoundRect,0.250000X-0.650000X0.412500X-0.650000X-0.412500X0.650000X-0.412500X0.650000X0.412500X0*%
%ADD14RoundRect,0.150000X-0.150000X0.587500X-0.150000X-0.587500X0.150000X-0.587500X0.150000X0.587500X0*%
%ADD15RoundRect,0.375000X-0.375000X0.625000X-0.375000X-0.625000X0.375000X-0.625000X0.375000X0.625000X0*%
%ADD16RoundRect,0.500000X-1.400000X0.500000X-1.400000X-0.500000X1.400000X-0.500000X1.400000X0.500000X0*%
%ADD17RoundRect,0.250000X-0.362500X-0.700000X0.362500X-0.700000X0.362500X0.700000X-0.362500X0.700000X0*%
%ADD18RoundRect,0.237500X0.300000X0.237500X-0.300000X0.237500X-0.300000X-0.237500X0.300000X-0.237500X0*%
%ADD19RoundRect,0.250000X0.412500X0.650000X-0.412500X0.650000X-0.412500X-0.650000X0.412500X-0.650000X0*%
%ADD20RoundRect,0.250000X-0.400000X-0.625000X0.400000X-0.625000X0.400000X0.625000X-0.400000X0.625000X0*%
%ADD21RoundRect,0.250000X0.625000X-0.400000X0.625000X0.400000X-0.625000X0.400000X-0.625000X-0.400000X0*%
%ADD22RoundRect,0.150000X-0.150000X-0.625000X0.150000X-0.625000X0.150000X0.625000X-0.150000X0.625000X0*%
%ADD23RoundRect,0.250000X-0.350000X-0.650000X0.350000X-0.650000X0.350000X0.650000X-0.350000X0.650000X0*%
%ADD24RoundRect,0.237500X-0.237500X0.300000X-0.237500X-0.300000X0.237500X-0.300000X0.237500X0.300000X0*%
%ADD25R,0.600000X1.200000*%
%ADD26R,1.100000X0.250000*%
G04 APERTURE END LIST*
D10*
%TO.C,R26*%
X143500000Y-99200000D03*
X140400000Y-99200000D03*
%TD*%
D11*
%TO.C,R10*%
X168450000Y-129250000D03*
X168450000Y-132350000D03*
%TD*%
D12*
%TO.C,U11*%
X145009001Y-106389500D03*
X145959001Y-106389500D03*
X146909001Y-106389500D03*
X146909001Y-104114500D03*
X145009001Y-104114500D03*
%TD*%
D13*
%TO.C,C13*%
X142700000Y-84450000D03*
X142700000Y-87575000D03*
%TD*%
D14*
%TO.C,Q2*%
X163926400Y-119850700D03*
X162026400Y-119850700D03*
X162976400Y-121725700D03*
%TD*%
D10*
%TO.C,R1*%
X170700000Y-106826250D03*
X167600000Y-106826250D03*
%TD*%
D11*
%TO.C,R18*%
X168450000Y-138950000D03*
X168450000Y-142050000D03*
%TD*%
D15*
%TO.C,U5*%
X167000000Y-146950000D03*
X164700000Y-146950000D03*
D16*
X164700000Y-153250000D03*
D15*
X162400000Y-146950000D03*
%TD*%
D17*
%TO.C,L1*%
X137287500Y-84700000D03*
X140612500Y-84700000D03*
%TD*%
D13*
%TO.C,R22*%
X130450000Y-77887500D03*
X130450000Y-81012500D03*
%TD*%
D11*
%TO.C,R5*%
X168400000Y-109026250D03*
X168400000Y-112126250D03*
%TD*%
D14*
%TO.C,Q3*%
X164150000Y-130212500D03*
X162250000Y-130212500D03*
X163200000Y-132087500D03*
%TD*%
D18*
%TO.C,C3*%
X166812500Y-144950000D03*
X165087500Y-144950000D03*
%TD*%
D11*
%TO.C,R24*%
X172458000Y-75226000D03*
X172458000Y-78326000D03*
%TD*%
%TO.C,R23*%
X175208000Y-75226000D03*
X175208000Y-78326000D03*
%TD*%
D18*
%TO.C,C12*%
X146458000Y-101200000D03*
X144733000Y-101200000D03*
%TD*%
D13*
%TO.C,R21*%
X132950000Y-77887500D03*
X132950000Y-81012500D03*
%TD*%
D19*
%TO.C,R19*%
X140762500Y-79950000D03*
X137637500Y-79950000D03*
%TD*%
D20*
%TO.C,R11*%
X161626400Y-117588200D03*
X164726400Y-117588200D03*
%TD*%
D21*
%TO.C,R4*%
X170650000Y-112126250D03*
X170650000Y-109026250D03*
%TD*%
D22*
%TO.C,U6*%
X172310000Y-49602107D03*
X173310000Y-49602107D03*
X174310000Y-49602107D03*
X175310000Y-49602107D03*
D23*
X171010000Y-47077107D03*
X176610000Y-47077107D03*
%TD*%
D11*
%TO.C,R25*%
X169708000Y-75226000D03*
X169708000Y-78326000D03*
%TD*%
D20*
%TO.C,R3*%
X161600000Y-107876250D03*
X164700000Y-107876250D03*
%TD*%
D14*
%TO.C,Q4*%
X164150000Y-140062500D03*
X162250000Y-140062500D03*
X163200000Y-141937500D03*
%TD*%
D10*
%TO.C,R12*%
X170976400Y-116838200D03*
X167876400Y-116838200D03*
%TD*%
D11*
%TO.C,R14*%
X168426400Y-118788200D03*
X168426400Y-121888200D03*
%TD*%
D24*
%TO.C,C2*%
X159200000Y-146975000D03*
X159200000Y-148700000D03*
%TD*%
D21*
%TO.C,R9*%
X170800000Y-132350000D03*
X170800000Y-129250000D03*
%TD*%
D20*
%TO.C,R7*%
X161650000Y-127900000D03*
X164750000Y-127900000D03*
%TD*%
D19*
%TO.C,R20*%
X140762500Y-82200000D03*
X137637500Y-82200000D03*
%TD*%
D17*
%TO.C,L2*%
X137287500Y-87200000D03*
X140612500Y-87200000D03*
%TD*%
D18*
%TO.C,C11*%
X145562500Y-107950000D03*
X143837500Y-107950000D03*
%TD*%
D21*
%TO.C,R13*%
X170676400Y-121888200D03*
X170676400Y-118788200D03*
%TD*%
D25*
%TO.C,LED1*%
X168600000Y-85499900D03*
X169700000Y-85499900D03*
X170800100Y-85499900D03*
X170800100Y-82499900D03*
X169700000Y-82499900D03*
X168600000Y-82499900D03*
%TD*%
D21*
%TO.C,R17*%
X170700000Y-142050000D03*
X170700000Y-138950000D03*
%TD*%
D20*
%TO.C,R15*%
X161650000Y-137500000D03*
X164750000Y-137500000D03*
%TD*%
D10*
%TO.C,R8*%
X170950000Y-127150000D03*
X167850000Y-127150000D03*
%TD*%
D14*
%TO.C,Q1*%
X164000000Y-110238750D03*
X162100000Y-110238750D03*
X163050000Y-112113750D03*
%TD*%
D26*
%TO.C,U4*%
X130800000Y-83950000D03*
X130800000Y-84450000D03*
X130800000Y-84950000D03*
X130800000Y-85450000D03*
X130800000Y-85950000D03*
X135100000Y-85950000D03*
X135100000Y-85450000D03*
X135100000Y-84950000D03*
X135100000Y-84450000D03*
X135100000Y-83950000D03*
%TD*%
D10*
%TO.C,R16*%
X171000000Y-136750000D03*
X167900000Y-136750000D03*
%TD*%
M02*
