M48
; DRILL file {KiCad 9.0.6} date 2026-03-09T03:43:46+0530
; FORMAT={-:-/ absolute / metric / decimal}
; #@! TF.CreationDate,2026-03-09T03:43:46+05:30
; #@! TF.GenerationSoftware,Kicad,Pcbnew,9.0.6
; #@! TF.FileFunction,Plated,1,2,PTH
FMAT,2
METRIC
; #@! TA.AperFunction,Plated,PTH,ViaDrill
T1C0.300
; #@! TA.AperFunction,Plated,PTH,ComponentDrill
T2C0.600
; #@! TA.AperFunction,Plated,PTH,ComponentDrill
T3C0.950
; #@! TA.AperFunction,Plated,PTH,ComponentDrill
T4C1.000
; #@! TA.AperFunction,Plated,PTH,ComponentDrill
T5C1.100
; #@! TA.AperFunction,Plated,PTH,ComponentDrill
T6C1.300
; #@! TA.AperFunction,Plated,PTH,ComponentDrill
T7C2.700
; #@! TA.AperFunction,Plated,PTH,ComponentDrill
T8C3.200
%
G90
G05
T1
X130.541Y-27.387
X130.541Y-28.852
X130.541Y-30.316
X130.541Y-31.78
X130.541Y-33.244
X130.541Y-34.709
X130.541Y-36.173
X130.541Y-37.637
X131.95Y-84.95
X132.95Y-77.888
X133.909Y-27.483
X133.909Y-28.948
X133.909Y-30.412
X133.909Y-31.876
X133.909Y-33.34
X133.909Y-34.805
X133.909Y-36.269
X133.909Y-37.733
X136.2Y-85.45
X136.208Y-53.276
X136.218Y-72.331
X137.287Y-87.2
X137.544Y-82.294
X137.637Y-79.95
X138.208Y-53.276
X138.218Y-72.331
X139.887Y-102.75
X139.958Y-37.776
X139.958Y-38.526
X140.208Y-53.276
X140.218Y-72.331
X140.708Y-37.776
X140.708Y-38.526
X142.208Y-38.226
X142.208Y-53.276
X142.218Y-72.331
X142.7Y-87.575
X143.5Y-99.2
X143.95Y-91.2
X144.208Y-38.226
X144.208Y-53.276
X144.218Y-72.331
X144.325Y-60.566
X145.4Y-60.566
X145.8Y-71.7
X145.8Y-72.6
X146.1Y-34.2
X146.2Y-54.5
X146.208Y-53.696
X146.213Y-52.087
X146.213Y-52.891
X146.458Y-60.566
X146.6Y-71.7
X146.6Y-72.6
X146.958Y-90.8
X146.958Y-91.6
X146.958Y-92.4
X147.0Y-34.2
X147.276Y-89.876
X147.9Y-34.2
X148.7Y-34.2
X161.6Y-105.3
X162.976Y-121.726
X163.05Y-112.114
X163.2Y-132.088
X163.2Y-141.938
X163.8Y-104.776
X163.926Y-115.588
X164.7Y-108.076
X164.7Y-146.95
X164.726Y-117.588
X164.75Y-127.9
X164.75Y-137.5
X165.6Y-104.875
X170.426Y-121.838
X170.45Y-132.15
X170.45Y-142.0
X170.65Y-112.076
T3
X167.45Y-29.95
X169.95Y-29.95
X171.208Y-55.076
X171.458Y-41.826
X172.45Y-29.95
X173.708Y-55.076
X173.958Y-41.826
X174.95Y-29.95
X176.208Y-55.076
X176.458Y-41.826
X177.45Y-29.95
X178.708Y-55.076
X178.958Y-41.826
T4
X126.6Y-121.6
X126.6Y-126.3
X126.6Y-130.98
X127.983Y-79.526
X127.983Y-82.066
X127.983Y-84.606
X127.983Y-87.146
X127.983Y-89.686
X127.983Y-92.226
X128.908Y-99.776
X135.18Y-110.98
X135.28Y-130.24
X136.508Y-99.776
X137.72Y-110.98
X137.82Y-130.24
X146.01Y-130.24
X146.07Y-110.92
X148.55Y-130.24
X148.61Y-110.92
X175.378Y-83.276
X175.378Y-85.8
X175.378Y-88.276
X175.378Y-90.776
X175.378Y-93.276
X175.378Y-95.776
X177.918Y-83.276
X177.918Y-85.8
X177.918Y-88.276
X177.918Y-90.776
X177.918Y-93.276
X177.918Y-95.776
X180.458Y-61.286
X180.458Y-63.826
X180.458Y-66.366
X180.458Y-68.906
X180.458Y-71.446
X180.458Y-73.986
X180.458Y-76.526
X180.458Y-79.066
X180.458Y-83.276
X180.458Y-85.8
X180.458Y-88.276
X180.458Y-90.776
X180.458Y-93.276
X180.458Y-95.776
T5
X150.468Y-37.706
X150.468Y-40.246
X150.468Y-42.786
X150.468Y-45.326
X150.468Y-47.866
X150.468Y-50.406
X150.468Y-52.946
X150.468Y-55.486
X150.468Y-58.026
X150.468Y-60.566
X150.468Y-63.106
X150.468Y-65.646
X150.468Y-68.186
X150.468Y-70.726
X150.468Y-73.266
X150.468Y-75.806
X150.468Y-78.346
X150.468Y-80.886
X150.468Y-83.426
X150.468Y-85.966
X150.468Y-88.506
X150.468Y-91.046
X150.468Y-93.586
X150.468Y-96.126
X153.008Y-93.586
X158.088Y-50.406
X160.628Y-50.406
X162.657Y-79.667
X162.657Y-82.207
X165.708Y-37.706
X165.708Y-40.246
X165.708Y-42.786
X165.708Y-45.326
X165.708Y-47.866
X165.708Y-50.406
X165.708Y-52.946
X165.708Y-55.486
X165.708Y-58.026
X165.708Y-60.566
X165.708Y-63.106
X165.708Y-65.646
X165.708Y-68.186
X165.708Y-70.726
X165.708Y-73.266
X165.708Y-75.806
X165.708Y-78.346
X165.708Y-80.886
X165.708Y-83.426
X165.708Y-85.966
X165.708Y-88.506
X165.708Y-91.046
X165.708Y-93.586
X165.708Y-96.126
T6
X127.6Y-111.6
X127.6Y-116.68
X146.905Y-149.873
X151.985Y-149.873
X177.373Y-106.3
X177.373Y-111.3
X177.373Y-116.3
X177.373Y-121.3
X177.373Y-126.3
X177.373Y-131.3
X177.373Y-136.3
X177.373Y-141.3
T7
X139.75Y-137.6
X139.75Y-144.8
T8
X125.8Y-40.7
X125.8Y-152.2
X179.83Y-35.67
X179.83Y-152.18
T2
G00X133.2Y-134.45
M15
G01X134.3Y-134.45
M16
G05
G00X133.2Y-147.95
M15
G01X134.3Y-147.95
M16
G05
M30
